<svg xmlns="http://www.w3.org/2000/svg" width="153.04" height="33.48" viewBox="0 0 153.04 33.48"><defs><style>.cls-1{fill:#fff;}</style></defs><title>creative_commons</title><g id="Layer_2" data-name="Layer 2"><g id="Layer_1-2" data-name="Layer 1"><path class="cls-1" d="M76.5,0A16.53,16.53,0,0,1,93.27,16.77a16.74,16.74,0,1,1-33.48-.08A16.67,16.67,0,0,1,76.5,0ZM90.23,16.77A13.57,13.57,0,0,0,76.6,3,13.77,13.77,0,0,0,62.82,16.69,13.84,13.84,0,0,0,76.51,30.45C83.37,30.52,90.41,24.73,90.23,16.77Z"/><path class="cls-1" d="M69,19.45h4.09a1,1,0,0,1,.12.28,2.84,2.84,0,0,0,2.48,2.61c1.63.31,3.11,0,4-1.45a7.8,7.8,0,0,0,.22-7.83c-.71-1.43-2.26-1.9-4.13-1.53a3,3,0,0,0-2.53,2.8l1,.09-3.16,3L68,14.39h1c.07-.25.13-.43.17-.62A7.25,7.25,0,0,1,77.94,8,8.25,8.25,0,0,1,85,15.81,9.57,9.57,0,0,1,83,23a8.59,8.59,0,0,1-9.92,2.25A6.92,6.92,0,0,1,69,19.45Z"/><path class="cls-1" d="M136.32,0a16.74,16.74,0,1,1-16.76,16.6A16.74,16.74,0,0,1,136.32,0Zm0,30.6a13.86,13.86,0,1,0-13.88-13.86A13.88,13.88,0,0,0,136.32,30.6Z"/><path class="cls-1" d="M138.85,27.54h-5v-8l-1.54-.11v-3c0-1.16,0-2.31,0-3.47s.37-1.47,1.47-1.48h5.32c.74,0,1.23.36,1.25,1.08,0,2.28,0,4.55,0,6.9l-1.47.08Z"/><path class="cls-1" d="M133.9,8.32a2.41,2.41,0,1,1,2.38,2.45A2.39,2.39,0,0,1,133.9,8.32Z"/><path class="cls-1" d="M16.8,0A16.52,16.52,0,0,1,33.49,16.83,16.66,16.66,0,0,1,16.67,33.48,16.84,16.84,0,0,1,0,16.7C0,8.2,7.09-.21,16.8,0ZM30.46,16.83A13.67,13.67,0,0,0,16.89,3C8.5,2.89,3,10.27,3,16.68A13.91,13.91,0,0,0,16.68,30.41C23.35,30.45,30.55,25.18,30.46,16.83Z"/><path class="cls-1" d="M16.54,14l-2.09,1.09a7.09,7.09,0,0,0-1.14-1,1.85,1.85,0,0,0-2.76,1,9,9,0,0,0-.07,3.06,1.73,1.73,0,0,0,1.58,1.53,2.09,2.09,0,0,0,2.26-1c.07-.12.15-.23.26-.39l2,1a4.77,4.77,0,0,1-5.43,2.56,4.56,4.56,0,0,1-3.86-4.63c-.15-2.79,1.11-4.82,3.39-5.48A5,5,0,0,1,16.54,14Z"/><path class="cls-1" d="M24.25,18.29l2,1a5,5,0,0,1-5.74,2.51c-2.19-.48-3.54-2.32-3.57-4.89s1.29-4.65,3.52-5.21A4.89,4.89,0,0,1,26.19,14l-2.05,1.08a7.6,7.6,0,0,0-1.14-1,1.88,1.88,0,0,0-2.81,1.06,8.09,8.09,0,0,0-.13,2.82,1.87,1.87,0,0,0,1.63,1.71C22.78,19.83,23.39,19.52,24.25,18.29Z"/></g></g></svg>