<svg xmlns="http://www.w3.org/2000/svg" width="8.59" height="18.47" viewBox="0 0 8.59 18.47"><defs><style>.cls-1{fill:#fff;}</style></defs><title>facebook</title><g id="Layer_2" data-name="Layer 2"><g id="Layer_1-2" data-name="Layer 1"><path class="cls-1" d="M0,6.07v3.2H1.91v9.2h3.8V9.26H8c.25,0,.34-.08.35-.33s.07-.74.11-1.11c.06-.57.12-1.14.18-1.76H5.7V4.64c0-.16,0-.32,0-.48.06-.67.33-.94,1-1,.27,0,.54,0,.81,0h1V0C7.7,0,6.87,0,6,0A8.06,8.06,0,0,0,4.74.14,3.1,3.1,0,0,0,2,3.11C1.9,4,1.92,4.81,1.9,5.66v.41Z"/></g></g></svg>