<svg xmlns="http://www.w3.org/2000/svg" width="19.29" height="15.77" viewBox="0 0 19.29 15.77"><defs><style>.cls-1{fill:#fff;}</style></defs><title>twitter</title><g id="Layer_2" data-name="Layer 2"><g id="Layer_1-2" data-name="Layer 1"><path class="cls-1" d="M18.75.42l-2.07.75A.57.57,0,0,1,16,1,4,4,0,0,0,9.45,4.59c0,.09,0,.2,0,.31A11.41,11.41,0,0,1,1.26.72,4.1,4.1,0,0,0,2.44,6l-.06.07L.7,5.63a4.23,4.23,0,0,0,3.09,4H2.11a4.07,4.07,0,0,0,3.71,2.77A8.15,8.15,0,0,1,0,14l.27.18a11.1,11.1,0,0,0,5.1,1.56,10.86,10.86,0,0,0,6.18-1.36A11.31,11.31,0,0,0,17.36,4.31a.69.69,0,0,1,.29-.62,7.14,7.14,0,0,0,1.64-1.77c-.39.13-.72.26-1.05.35s-.69.15-1,.22A4.62,4.62,0,0,0,18.75.42Z"/></g></g></svg>