<svg xmlns="http://www.w3.org/2000/svg" width="21.61" height="15.69" viewBox="0 0 21.61 15.69"><defs><style>.cls-1{fill:#fff;}</style></defs><title>youtube</title><g id="Layer_2" data-name="Layer 2"><g id="Layer_1-2" data-name="Layer 1"><path class="cls-1" d="M18.54,15.69H3.07A3.08,3.08,0,0,1,0,12.61V3.07A3.08,3.08,0,0,1,3.07,0H18.54a3.08,3.08,0,0,1,3.07,3.07v9.54A3.08,3.08,0,0,1,18.54,15.69ZM3.07,1.5A1.58,1.58,0,0,0,1.5,3.07v9.54a1.58,1.58,0,0,0,1.57,1.58H18.54a1.58,1.58,0,0,0,1.57-1.58V3.07A1.58,1.58,0,0,0,18.54,1.5ZM14.65,7.44,9.05,4.21a.47.47,0,0,0-.71.41v6.47a.48.48,0,0,0,.71.41l5.6-3.23A.48.48,0,0,0,14.65,7.44Z"/></g></g></svg>